<svg xmlns="http://www.w3.org/2000/svg" xmlns:xlink="http://www.w3.org/1999/xlink" width="163.839" height="163.839" fill-rule="evenodd" clip-rule="evenodd" image-rendering="optimizeQuality" shape-rendering="geometricPrecision" text-rendering="geometricPrecision" version="1.1" viewBox="0 0 4335 4335" xml:space="preserve"><defs><style type="text/css">.fil1{fill:#f08519}.fil3{fill:#32b788}.fil2{fill:#34495c}.fil0{fill:#fc0}</style></defs><g id="Layer_x0020_1"><metadata id="CorelCorpID_0Corel-Layer"/><g id="_522177336"><path d="M2117 1264c157,0 307,31 443,88l0 0 0 0c14,6 28,12 42,19 93,32 188,8 230,-64l0 0c66,-109 186,-181 322,-181 208,0 377,169 377,377 0,150 -88,279 -214,340l0 0 0 0c-4,2 -7,3 -11,5 -49,26 -116,103 -87,236 4,13 8,27 11,40l0 1 0 0c24,93 37,190 37,291 0,636 -515,1151 -1151,1151 -636,0 -1151,-515 -1151,-1151 0,-636 515,-1151 1151,-1151z" class="fil0"/><path d="M3088 2415c0,-536 -435,-971 -971,-971 -536,0 -971,435 -971,971 0,536 435,971 971,971 536,0 971,-435 971,-971z" class="fil1"/><path d="M2745 670c147,0 266,119 266,266 0,147 -119,266 -266,266 -147,0 -266,-119 -266,-266 0,-147 119,-266 266,-266z" class="fil2"/><path d="M3260 705c93,0 169,76 169,169 0,93 -76,169 -169,169 -93,0 -169,-76 -169,-169 0,-93 76,-169 169,-169z" class="fil3"/><g><polygon points="1707 1959 2115 2665 2525 1954 2273 1954 2117 2224 1964 1959" class="fil2"/><polygon points="2115 2665 1707 1959 1450 1959 2117 3117 2802 1954 2525 1954" class="fil3"/></g></g></g></svg>